<?xml version="1.0" encoding="UTF-8"?>
<!DOCTYPE svg PUBLIC "-//W3C//DTD SVG 1.1//EN" "http://www.w3.org/Graphics/SVG/1.1/DTD/svg11.dtd">
<!-- Creator: CorelDRAW 2019 (64-Bit) -->
<svg xmlns="http://www.w3.org/2000/svg" xml:space="preserve" width="35.031mm" height="35.031mm" version="1.1" style="shape-rendering:geometricPrecision; text-rendering:geometricPrecision; image-rendering:optimizeQuality; fill-rule:evenodd; clip-rule:evenodd"
viewBox="0 0 3503.1 3503.1"
 xmlns:xlink="http://www.w3.org/1999/xlink">
 <defs>
  <style type="text/css">
   <![CDATA[
    .fil1 {fill:#0073E6}
    .fil0 {fill:#CEDFF5}
   ]]>
  </style>
 </defs>
 <g id="Слой_x0020_1">
  <metadata id="CorelCorpID_0Corel-Layer"/>
  <rect class="fil0" x="-1.05" y="1.04" width="3503.1" height="3503.1" rx="1300" ry="1300"/>
  <path class="fil1" d="M1972.86 1050.5l632.36 632.37 0.01 0c38.07,38.07 38.07,100.36 0,138.43l-0.01 0.01 -632.36 632.36c-38.07,38.07 -100.37,38.07 -138.44,0l-0.01 0c-38.07,-38.07 -38.07,-100.37 0,-138.44l465.25 -465.25 -1346.72 0c-53.84,0 -97.89,-44.05 -97.89,-97.89l0 -0.01c0,-53.83 44.05,-97.88 97.89,-97.88l1346.73 0 -465.26 -465.25c-38.07,-38.07 -38.07,-100.37 0,-138.44l0.01 -0.01c38.07,-38.07 100.37,-38.07 138.44,0z"/>
 </g>
</svg>
